<?xml version="1.0" encoding="utf-8"?>
<!-- Generator: Adobe Illustrator 25.4.1, SVG Export Plug-In . SVG Version: 6.00 Build 0)  -->
<svg version="1.1" id="Layer_1" focusable="false" xmlns="http://www.w3.org/2000/svg" xmlns:xlink="http://www.w3.org/1999/xlink"
	 x="0px" y="0px" viewBox="0 0 512 512" style="enable-background:new 0 0 512 512;" xml:space="preserve">
<style type="text/css">
	.st0{fill:#00768E;}
</style>
<g>
	<path class="st0" d="M8,454.1V320c0-13.3,10.7-24,24-24h134.1c21.4,0,32.1,25.9,17,41l-41.8,41.8c31.1,29.2,72.2,45.4,114.9,45.2
		c77.4-0.1,144.3-53.1,162.8-126.9c1.3-5.4,6.1-9.1,11.6-9.1h57.3c6.6,0,12,5.4,12,12c0,0.7-0.1,1.5-0.2,2.2
		C478.1,417.1,377.2,504,256,504c-63.8,0.1-125.2-24.5-171.3-68.7L49,471C33.8,486.1,8,475.4,8,454.1z"/>
	<path class="st0" d="M12.3,209.8C33.9,94.9,134.8,8,256,8c63.8-0.1,125.2,24.5,171.3,68.7L463,41c15.1-15.1,41-4.4,41,17v134
		c0,13.3-10.7,24-24,24H345.9c-21.4,0-32.1-25.9-17-41l41.8-41.8C339.6,104,298.5,87.8,255.9,88c-77.5,0.1-144.3,53.2-162.8,126.9
		c-1.3,5.4-6.1,9.1-11.7,9.1H24.1c-6.6,0-12-5.4-12-12C12.1,211.3,12.2,210.5,12.3,209.8z"/>
</g>
</svg>
